<svg xmlns="http://www.w3.org/2000/svg" viewBox="0 0 458.52 203.24"><defs><style>.cls-1{fill:#ffca80;}</style></defs><title>Recurso3</title><g id="Capa_2" data-name="Capa 2"><g id="Capa_2-2" data-name="Capa 2"><path class="cls-1" d="M408.84,48.72c-1.66-9.5-16.11-5.47-14.47,4,2.07,11.88-6.43,22.41-15.67,28.7a75.18,75.18,0,0,1-7.08,4.23A7,7,0,0,0,371,86a89,89,0,0,1-30.45,9,87.64,87.64,0,0,1-20.29,0h0c-14.14-1.77-27.74-7.79-30.95-22.47-2.05-9.43-16.52-5.44-14.46,4,4.16,19,20,28.58,37.72,32.18a291.77,291.77,0,0,1-3.94,79.64c-1.8,9.43,12.65,13.47,14.46,4a307.24,307.24,0,0,0,4.61-81.93,100.41,100.41,0,0,0,16.67-.86,110.24,110.24,0,0,0,24.35-6.34,287.71,287.71,0,0,1-1.89,76.49c-.64,4,1,8,5.24,9.23,3.56,1,8.59-1.24,9.23-5.24a311.44,311.44,0,0,0,1.57-87.3C400,86.17,412.6,70.35,408.84,48.72Z"/><path class="cls-1" d="M274.06,188.24c-17.27-.21-34.95-11.71-41.73-27.86-9.08-21.63,1.35-47.89,11.61-67.23a148.65,148.65,0,0,1,10.19-16.86c5.63-7.87-7.37-15.36-12.95-7.57-11.43,16-20.44,35.26-24.7,54.41-3,13.43-3.78,27.92,1.27,41a60.66,60.66,0,0,0,22.46,28.07,61.74,61.74,0,0,0,33.85,11.08C283.72,203.35,283.72,188.35,274.06,188.24Z"/><path class="cls-1" d="M154.8,161.27c-2.68,5.18-8.69,15.57-16,14.1-6.52-1.3-8-11.61-8.24-16.89-.38-9.6,2.67-18.91,4.93-28.15,1.86-7.63,3.74-15.25,5.59-22.88,2.28-9.38-12.19-13.38-14.46-4-2.5,10.31-5,20.6-7.55,30.91-3,12.24-5.4,24.9-1.34,37.23,3.28,10,11.08,19.06,22.39,18.86,12.75-.24,22.26-11.15,27.68-21.62C172.18,160.28,159.25,152.69,154.8,161.27Z"/><path class="cls-1" d="M132.67,91a5.53,5.53,0,0,0,2,2.17,6.21,6.21,0,0,0,2.65,1.37l2,.27q.56-.06,1.11-.15a3.72,3.72,0,0,0,1.89-.51,4.86,4.86,0,0,0,1-.43,11.28,11.28,0,0,0,1.59-1.26A7.32,7.32,0,0,0,146.55,90a6.5,6.5,0,0,0,.22-.62c0-.1.08-.2.11-.31V89a6,6,0,0,0,.25-1.81v-.13s0-.07,0-.1a5.9,5.9,0,0,0-.11-.83c0-.05,0-.09,0-.14v-.06a3.89,3.89,0,0,0-.23-1.23,5.35,5.35,0,0,0-.54-1.23,3.52,3.52,0,0,0-.18-.4l-.31-.4-.07-.09c-.26-.35-.53-.69-.79-1a6.35,6.35,0,0,0-2.5-1.62,5.55,5.55,0,0,0-3-.68,13.58,13.58,0,0,0-2.1.28,5.68,5.68,0,0,0-2.65,1.4,2.24,2.24,0,0,0-.82.67l-1.18,1.52-.75,1.79a3.78,3.78,0,0,0-.17,1.11,5.8,5.8,0,0,0,.15,3.1A13.11,13.11,0,0,0,132.67,91Z"/><path class="cls-1" d="M109.89,64C106.1,53.18,95.8,47,85.52,43.49c-14.46-5-30.6-5.32-45.68-4-3.36.31-6.27,2.12-7.24,5.51Q18.47,94.67,4.33,144.31q-2,7-4,14.08a6.72,6.72,0,0,0,2,7.25,8.19,8.19,0,0,0,1.43,1.22c12.82,8.66,28.47,12.51,43.79,13.22,14.73.68,30.9-1.69,43.57-9.68,10.63-6.7,18.26-17.44,18.68-30.26.37-11.32-5.46-21.87-13.92-29.07a61,61,0,0,0-13.8-8.77,67.21,67.21,0,0,0,13.7-7C106,88.32,114.39,76.76,109.89,64ZM85.42,84.05c-10.53,6.18-23.27,9-35.27,10.36-9.51,1.1-9.77,14.17,0,15,13.13,1.11,27.83,4.88,37.51,14.41,7.11,7,9.69,17.32,3.91,26-7.33,11-22.68,14.56-35.06,15.2-13.76.71-28-1.57-40.17-8.13Q29.69,110,43.06,63.12c.85-3,1.71-6,2.56-9,10.24-.6,20.61-.22,30.57,2.27,6.67,1.67,15.36,4.55,18.85,10.9C98.84,74.2,91.26,80.63,85.42,84.05Z"/><path class="cls-1" d="M458.51,116.11a10.87,10.87,0,0,0-.13-2.1c-1.14-12.85-9-24-21.36-28.56a32.68,32.68,0,0,0-39.4,47.15c7,12,20.77,17.8,34.28,15.56,14.87-2.46,25.2-15.53,26.49-30A10.27,10.27,0,0,0,458.51,116.11Zm-32.67,12.68a12.68,12.68,0,1,1,12.67-12.68A12.74,12.74,0,0,1,425.84,128.79Z"/><path class="cls-1" d="M305.58,140.21a11,11,0,0,0-.14-2.1c-1.14-12.85-9-24-21.36-28.55a32.67,32.67,0,0,0-39.4,47.14c7,12,20.77,17.81,34.29,15.57,14.86-2.46,25.19-15.53,26.48-30A11.06,11.06,0,0,0,305.58,140.21ZM272.9,152.89a12.67,12.67,0,1,1,12.68-12.68A12.74,12.74,0,0,1,272.9,152.89Z"/><path class="cls-1" d="M213.41,81.27a135.25,135.25,0,0,1-19.06,2.38c.29-3.72.62-7.43,1-11.15.43-4-3.76-7.5-7.5-7.5-4.42,0-7.07,3.46-7.5,7.5-.4,3.71-.73,7.42-1,11.13a136.68,136.68,0,0,1-18.64-2.36c-9.43-1.87-13.47,12.58-4,14.46a155.28,155.28,0,0,0,21.75,2.75,402.61,402.61,0,0,0,6.93,91.83c1.81,9.47,16.27,5.46,14.46-4a383.1,383.1,0,0,1-6.41-87.73,156.33,156.33,0,0,0,24-2.86C226.86,93.86,222.85,79.4,213.41,81.27Z"/><path class="cls-1" d="M359,77.77c-13.59,5.26-30,7.59-44.22,3.52-4.79-1.37-10.48-3.86-12.67-8.7s.57-9.89,3.84-13.47a38,38,0,0,1,5.29-4.75c.54,3.56.92,7.15,1.19,10.71.17,2.31,3.68,2.41,3.75.24a1,1,0,0,0,0-.24c-.33-4.3-.75-8.71-1.47-13.07-.09-.6-.19-1.19-.3-1.78s-.26-1.44-.42-2.16A58.93,58.93,0,0,0,309,33.28a90.65,90.65,0,0,0-5.69-9.52c-1.42-2.09-4.15-4.61-5-7C296.59,12.23,309.94,8,312.9,7A126.61,126.61,0,0,1,341.6.58a89.19,89.19,0,0,1,12-.55c2.68.08,7.39-.13,9.71,1.59a2.48,2.48,0,0,1,1,2v0A2.31,2.31,0,0,1,363.75,5a.32.32,0,0,1-.08.09,8.83,8.83,0,0,1-1,.9c-2.54,2-6.64,3.55-8.26,4.25a95.59,95.59,0,0,1-13.54,4.52h0c-2.75.72-5.54,1.34-8.32,1.92-2.36.48-1.36,4.1,1,3.61,9.08-1.87,18.36-4.28,26.62-8.62.8-.42,1.74-.92,2.69-1.51-.68,3.08-1.24,6.18-1.63,9.3a59,59,0,0,0,.87,19.21c.1.54.21,1.08.33,1.63,0,.12,0,.23.08.35.12.58.25,1.15.39,1.72.64,2.79,1.38,5.55,2.18,8.3.46,1.59,1.54,3.52,1,5.17-.91,3-6,5.13-8.48,6.3a69.26,69.26,0,0,1-15.1,4.71,1.6,1.6,0,0,0-1.35,1.58,2,2,0,0,0,2.35,2c7.88-1.65,17.35-4.07,23.43-9.77,3.31-3.11,3.32-5.72,2.12-9.71-.79-2.61-1.57-5.27-2.26-8,7.33,1.52,13.69,4.88,15.34,11.66C384,66.4,367.62,74.42,359,77.77Z"/></g></g></svg>